<?xml version="1.0" encoding="UTF-8"?>
<svg version="1.1" xmlns="http://www.w3.org/2000/svg" width="20" height="19">
<path d="M0,0 L20,0 L20,19 L0,19 Z " fill="#3A584E" transform="translate(0,0)"/>
<path d="M0,0 L3,0 L3,3 L10,3 L10,10 L4,10 L4,15 L-1,14 L-6,9 L-7,5 Z " fill="#3BBB5E" transform="translate(10,3)"/>
<path d="M0,0 L8,0 L8,6 L1,6 L1,3 L-8,8 L-8,11 L-5,14 L-10,12 L-11,7 Z " fill="#40AE60" transform="translate(12,0)"/>
<path d="M0,0 L3,0 L4,7 L-1,10 L-6,9 L-7,5 Z " fill="#35C659" transform="translate(10,3)"/>
<path d="M0,0 L5,3 L10,5 L10,0 L16,0 L16,6 L5,6 L0,2 Z " fill="#2F7046" transform="translate(4,13)"/>
<path d="M0,0 L6,0 L6,6 L0,6 Z " fill="#395D4F" transform="translate(14,0)"/>
<path d="M0,0 L5,0 L5,5 L0,5 Z " fill="#3D554F" transform="translate(15,14)"/>
</svg>
