<svg xmlns="http://www.w3.org/2000/svg">
    <defs>
        <symbol viewBox="0 0 32 32" id="accelerator">
            <path d="M0,0 L3,0 L3,5 L0,5 Z " fill="currentColor" transform="translate(14,4)" />
            <path d="M0,0 L6,0 L7,1 L7,17 L6,18 L0,18 L-1,17 L-1,1 Z " fill="currentColor"
                transform="translate(12,10)" />
        </symbol>
        <symbol viewBox="0 0 32 32" id="brake">
            <path d="M0,0 L2,0 L1,5 L-2,9 L-5,8 Z " fill="currentColor" transform="translate(24,5)" />
            <path d="M0,0 L15,0 L16,1 L16,8 L13,12 L2,12 L-1,8 L-1,1 Z " fill="currentColor"
                transform="translate(8,15)" />
        </symbol>
        <symbol viewBox="0 0 32 32" id="steering">
            <path fill-rule="evenodd" clip-rule="evenodd"
                d="M16 4C22.6274 4 28 9.37258 28 16C28 22.6274 22.6274 28 16 28C9.37258 28 4 22.6274 4 16C4 9.37258 9.37258 4 16 4ZM16 6.4C10.6981 6.4 6.4 10.6981 6.4 16C6.4 21.3019 10.6981 25.6 16 25.6C21.3019 25.6 25.6 21.3019 25.6 16C25.6 10.6981 21.3019 6.4 16 6.4Z"
                fill="currentColor" />
            <path
                d="M25.6 14.8C17.2 13.6 14.2 13.6 6.4 14.8V17.2C8.8 17.2 14.8 17.2 14.8 25.6H17.2C17.2 17.2 23.2 17.2 25.6 17.2V14.8Z"
                fill="currentColor" />
            <path fill-rule="evenodd" clip-rule="evenodd"
                d="M16 4C22.6274 4 28 9.37258 28 16C28 22.6274 22.6274 28 16 28C9.37258 28 4 22.6274 4 16C4 9.37258 9.37258 4 16 4ZM16 6.4C10.6981 6.4 6.4 10.6981 6.4 16C6.4 21.3019 10.6981 25.6 16 25.6C21.3019 25.6 25.6 21.3019 25.6 16C25.6 10.6981 21.3019 6.4 16 6.4Z"
                stroke="currentColor" />
            <path
                d="M25.6 14.8C17.2 13.6 14.2 13.6 6.4 14.8V17.2C8.8 17.2 14.8 17.2 14.8 25.6H17.2C17.2 17.2 23.2 17.2 25.6 17.2V14.8Z"
                stroke="currentColor" />
        </symbol>
        <symbol viewBox="0 0 20 20" id="blinker">
            <path d="M0,0 L1,0 L1,6 L7,6 L7,13 L1,13 L1,19 L-10,12 L-13,9 Z " fill="currentColor"
                transform="translate(13,0)" />
        </symbol>
    </defs>
</svg>